<svg xmlns="http://www.w3.org/2000/svg" width="148.81" height="36" viewBox="0 0 148.81 36">
  <g id="Logo_-_Long" data-name="Logo - Long" transform="translate(-30 -29.947)">
    <g id="Groupe_4" data-name="Groupe 4" transform="translate(67.807 37.214)">
      <path id="Tracé_21" data-name="Tracé 21" d="M612.93,703.5c-5.686,0-6.829,4.137-6.829,10.813s1.142,10.813,6.829,10.813c1.821,0,6.057-.554,6.057-5.686V718.2H616.2v1.239c0,1.89-1.162,2.931-3.271,2.931-3.739,0-4.043-3.649-4.043-8.058s.3-8.058,4.043-8.058c2.191,0,3.3.986,3.3,2.931v1.238h2.755v-1.238C618.985,704.054,614.751,703.5,612.93,703.5Z" transform="translate(-606.101 -703.5)" fill="#152543"/>
      <path id="Tracé_22" data-name="Tracé 22" d="M724.957,704.521v15.167c0,4.183,2.11,6.3,6.273,6.3,4.224,0,6.365-2.121,6.365-6.3V704.521h-2.817v15.167c0,2.421-1.128,3.549-3.548,3.549-2.389,0-3.456-1.094-3.456-3.549V704.521Z" transform="translate(-706.983 -704.367)" fill="#152543"/>
      <path id="Tracé_23" data-name="Tracé 23" d="M841.158,717.8v1.239c0,1.428.495,6.088,6.86,6.088,5.494,0,6.087-3.89,6.087-5.563,0-4.3-3.032-5.417-5.708-6.406-1.943-.725-4.145-1.546-4.145-3.817,0-1.845,1.4-3.085,3.487-3.085a2.992,2.992,0,0,1,3.24,3.209V710.7H853.8v-1.239c0-.244-.069-5.964-6.057-5.964a5.82,5.82,0,0,0-6.3,5.84c0,4.291,2.928,5.436,5.759,6.544l.044.017c1.9.719,4.049,1.534,4.049,3.662,0,.658-.236,2.807-3.271,2.807-2.589,0-4.073-1.215-4.073-3.332V717.8Z" transform="translate(-805.611 -703.501)" fill="#152543"/>
      <path id="Tracé_24" data-name="Tracé 24" d="M951.444,725.838h2.817V707.276h4.293v-2.755h-11.4v2.755h4.293Z" transform="translate(-895.575 -704.367)" fill="#152543"/>
      <path id="Tracé_25" data-name="Tracé 25" d="M1054.16,725.838h10.075v-2.755h-7.258v-6.047h5.868v-2.755h-5.868v-7h7.042v-2.755h-9.859Z" transform="translate(-986.402 -704.367)" fill="#152543"/>
      <path id="Tracé_26" data-name="Tracé 26" d="M1154.44,725.838h10.075v-2.755h-7.258v-6.047h5.867v-2.755h-5.867v-7h7.041v-2.755h-9.858Z" transform="translate(-1071.517 -704.367)" fill="#152543"/>
      <path id="Tracé_27" data-name="Tracé 27" d="M1260.7,704.521h-5.995v21.317h5.995c5.744,0,6.921-4.261,6.921-10.658S1266.448,704.521,1260.7,704.521Zm.005,18.593h-3.183V707.276h3.178c3.79,0,4.1,3.739,4.1,7.9,0,4.26-.309,7.8-4.1,7.934Z" transform="translate(-1156.623 -704.367)" fill="#152543"/>
    </g>
    <g id="Groupe_27" data-name="Groupe 27" transform="translate(30 29.947)">
      <path id="Tracé_40" data-name="Tracé 40" d="M120.806,37.91a15.033,15.033,0,0,1,0,30.066c-3.432,0-11.92,1.1-11.92,1.1s-3.13-11.26-3.13-16.131A15.037,15.037,0,0,1,120.806,37.91Z" transform="translate(-103.935 -36.571)" fill="#152543"/>
      <path id="Tracé_29" data-name="Tracé 29" d="M124.69,63.757l.741-6.858,3.584-4.925-1.028-4.592-4.7.453L119.7,52.759l-6.322,2.825,3.418,2.478,1.6-2.206.7.5a.187.187,0,0,1,.076.227l-3.055,7.086,5.822-5.076a.233.233,0,0,1,.242,0l.7.5-1.6,2.205Zm.378-9.88a1.087,1.087,0,0,1-1.512.242l-.635-.469a1.066,1.066,0,0,1-.242-1.5h0l1.119-1.526a1.087,1.087,0,0,1,1.512-.241l.635.469a1.065,1.065,0,0,1,.242,1.5h0Z" transform="translate(-105.603 -38.648)" fill="#fff" fill-rule="evenodd"/>
      <g id="Groupe_19" data-name="Groupe 19" transform="translate(0)">
        <g id="Groupe_15" data-name="Groupe 15" transform="translate(0 8.301)">
          <path id="Tracé_48" data-name="Tracé 48" d="M929.2,572.945a14.573,14.573,0,0,1-13.963.626l-.017-.008-4.935,2.658.793-5.725-.006-.007a14.382,14.382,0,0,1-2.625-3.917c-.064-.142-.158-.4-.265-.722-.319-.953-.748-2.423-.814-2.811q-.118-.7-.169-1.393a14.254,14.254,0,0,1,1.677-7.838c.03-.056.063-.112.094-.167l0,.006-1.722-1.333c-.062.106-.124.212-.183.319A16.365,16.365,0,0,0,905,560.387a16.745,16.745,0,0,0,.238,3.011c.043.252.175.762.342,1.344a27.464,27.464,0,0,0,.9,2.713,16.464,16.464,0,0,0,1.8,3.046l.006.008-.759,9.5L916.2,576.3l.024.008a16.78,16.78,0,0,0,12.545-.694,16.521,16.521,0,0,0,4.522-3.14l-1.568-.326Z" transform="translate(-905 -552.311)" fill="#f1334e"/>
          <path id="Tracé_49" data-name="Tracé 49" d="M919.824,552.3" transform="translate(-917.581 -552.3)" fill="#f1334e"/>
        </g>
        <path id="Tracé_30" data-name="Tracé 30" d="M908.53,616.657c-.064-.142-.158-.4-.266-.722-.315-.941-.737-2.386-.811-2.8l-2.354-1.823a16.855,16.855,0,0,0,.225,2.167c.043.252.175.762.342,1.344.057.2.118.407.181.615l3.448,2.669A14.28,14.28,0,0,1,908.53,616.657Z" transform="translate(-905.085 -594.096)" fill="#f36233"/>
        <path id="Tracé_31" data-name="Tracé 31" d="M1025.481,699.936a16.786,16.786,0,0,0,2.838-.957l-1.98-1.532a14.639,14.639,0,0,1-2.611.643q-.494.074-.993.114l2.354,1.822C1025.219,700,1025.351,699.967,1025.481,699.936Z" transform="translate(-1004.923 -667.207)" fill="#f79516"/>
        <path id="Tracé_32" data-name="Tracé 32" d="M906.519,572.434l1.98,1.533a14.189,14.189,0,0,1,.607-3.078l-1.8-1.4A16.292,16.292,0,0,0,906.519,572.434Z" transform="translate(-906.289 -558.594)" fill="#f1ba0b"/>
        <path id="Tracé_33" data-name="Tracé 33" d="M1069.4,678.223l-1.721-1.334a14.36,14.36,0,0,1-2.308,1.761l1.8,1.4A16.47,16.47,0,0,0,1069.4,678.223Z" transform="translate(-1041.111 -649.757)" fill="#a8ba4d"/>
        <path id="Tracé_35" data-name="Tracé 35" d="M911.7,554.908l1.8,1.4c.021-.065.04-.131.062-.2a14.321,14.321,0,0,1,.995-2.3c.029-.054.06-.107.091-.161l-1.722-1.333c-.062.106-.124.212-.183.319a16.518,16.518,0,0,0-.953,2.032C911.761,554.744,911.731,554.826,911.7,554.908Z" transform="translate(-910.686 -544.009)" fill="#a8ba4d"/>
        <path id="Tracé_36" data-name="Tracé 36" d="M1049.4,688.545l-.064.04a14.479,14.479,0,0,1-1.837.942q-.467.2-.944.363l1.979,1.532q.187-.082.372-.169a16.643,16.643,0,0,0,2.169-1.226l.127-.087Z" transform="translate(-1025.141 -659.651)" fill="#f1ba0b"/>
        <path id="Tracé_37" data-name="Tracé 37" d="M907.369,594.134q-.119-.7-.169-1.393a14.377,14.377,0,0,1,0-2.143c0-.04.007-.079.011-.119l-1.98-1.533c-.015.086-.03.171-.043.257a16.407,16.407,0,0,0-.186,2.28c0,.281,0,.562.014.844l2.355,1.823Z" transform="translate(-905.003 -575.106)" fill="#f79516"/>
        <path id="Tracé_38" data-name="Tracé 38" d="M993.088,699.407c-.284.023-.569.039-.854.045a14.519,14.519,0,0,1-4.431-.588l3.528,2.731a16.814,16.814,0,0,0,2.735-.129q.692-.09,1.375-.237Z" transform="translate(-975.276 -668.411)" fill="#f36233"/>
        <path id="Tracé_39" data-name="Tracé 39" d="M1082.472,662.91l-.054.077q-.139.191-.284.376a14.435,14.435,0,0,1-1.223,1.379c-.1.1-.193.189-.292.281l1.722,1.333q.158-.154.313-.314a16.8,16.8,0,0,0,1.239-1.433q.136-.178.269-.36l.014-.02Z" transform="translate(-1054.05 -637.891)" fill="#80b870"/>
        <path id="Tracé_34" data-name="Tracé 34" d="M920.757,537.952a16.84,16.84,0,0,0-.939,1.439l1.722,1.333a14.715,14.715,0,0,1,.963-1.509c.2-.278.414-.544.632-.8l-1.705-1.32Q921.082,537.508,920.757,537.952Z" transform="translate(-917.576 -531.089)" fill="#80b870"/>
        <path id="Tracé_50" data-name="Tracé 50" d="M930.471,503.383l1.705,1.32.06-.075a14.538,14.538,0,0,1,19.539-2.32l.009.007a14.425,14.425,0,0,1,3.254,20.085l1.706,1.32a16.623,16.623,0,0,0-26.253-20.365" transform="translate(-926.617 -497.382)" fill="#43b9ad"/>
      </g>
    </g>
  </g>
</svg>
