<svg xmlns="http://www.w3.org/2000/svg" width="13" height="18" viewBox="0 0 13 18">
  <path id="phone" d="M670.57,120.091a2.29,2.29,0,0,0-2.561-2.516q-3.977,0-7.953,0a2.257,2.257,0,0,0-2.47,2.379q-.02,6.633,0,13.265a2.243,2.243,0,0,0,2.443,2.354q3.977,0,7.954,0A2.3,2.3,0,0,0,670.572,133q0-3.238,0-6.475C670.572,124.378,670.578,122.235,670.57,120.091Zm-5.216,12.96a.547.547,0,0,1-.539.554c-.254.021-.511,0-.767,0v0c-.226,0-.452.012-.677,0a.611.611,0,0,1-.116-1.2,3.937,3.937,0,0,1,1.656,0A.555.555,0,0,1,665.353,133.051Zm2.723-2.617q-4-.016-8,0c-.4,0-.561-.125-.556-.547.021-1.649.008-3.3.008-4.947,0-1.634.01-3.268-.007-4.9,0-.4.142-.526.528-.525q4.023.013,8.046,0c.381,0,.537.12.536.52q-.018,4.925,0,9.85C668.633,130.3,668.485,130.436,668.076,130.434Z" transform="translate(-657.574 -117.574)" fill="#757575"/>
</svg>
