<svg xmlns="http://www.w3.org/2000/svg" width="18" height="18" viewBox="0 0 18 18">
  <g id="desktop" transform="translate(-211.951 -582.901)">
    <path id="Tracé_5067" data-name="Tracé 5067" d="M220.945,582.9h6.473a2.284,2.284,0,0,1,2.52,2.5c0,3.059-.029,6.118.013,9.177a2.376,2.376,0,0,1-2.47,2.478c-1.227-.049-2.457-.013-3.686-.009-.591,0-.685.152-.461.7.231.567.47,1.131.694,1.7a.969.969,0,0,1-.97,1.448q-2.113.006-4.226,0a.968.968,0,0,1-.97-1.448c.241-.611.5-1.216.743-1.826.159-.4.041-.569-.419-.577-.7-.012-1.408,0-2.113,0-.644,0-1.289.009-1.933-.009a2.233,2.233,0,0,1-2.185-2.23q-.013-4.791,0-9.582a2.241,2.241,0,0,1,2.334-2.318C216.509,582.9,218.727,582.9,220.945,582.9Zm-.022,12.224q3.235,0,6.471,0c.566,0,.621-.052.621-.611q0-4.542,0-9.083c0-.534-.057-.59-.6-.59q-6.471,0-12.942,0c-.542,0-.6.055-.6.588q0,4.542,0,9.084c0,.561.055.613.618.613Q217.71,595.128,220.923,595.127Z" transform="translate(0 0)" fill="#757575"/>
  </g>
</svg>
