<svg xmlns="http://www.w3.org/2000/svg" width="16" height="18" viewBox="0 0 16 18">
  <path id="iPad" d="M249.619,47.995a2.339,2.339,0,0,0-2.6-2.476h-10.71a2.371,2.371,0,0,0-2.687,2.612q0,3.194,0,6.389c0,2.16,0,4.319,0,6.479a2.342,2.342,0,0,0,2.6,2.519h10.8a2.333,2.333,0,0,0,2.593-2.475Q249.63,54.519,249.619,47.995Zm-2.02,5.566c0,1.844-.011,3.687.008,5.53,0,.429-.139.575-.585.574q-5.4-.019-10.8,0c-.45,0-.585-.149-.584-.575q.02-5.531,0-11.061c0-.426.134-.58.583-.579q5.4.018,10.8,0c.444,0,.591.148.586.579C247.587,49.874,247.6,51.718,247.6,53.561Z" transform="translate(-233.625 -45.519)" fill="#757575"/>
</svg>
